<svg id="visual" viewBox="0 0 900 600" width="900" height="600" xmlns="http://www.w3.org/2000/svg" xmlns:xlink="http://www.w3.org/1999/xlink" version="1.1"><path d="M0 421L21.5 417.7C43 414.3 86 407.7 128.8 424.7C171.7 441.7 214.3 482.3 257.2 483.8C300 485.3 343 447.7 385.8 446.3C428.7 445 471.3 480 514.2 488.3C557 496.7 600 478.3 642.8 463.7C685.7 449 728.3 438 771.2 445.8C814 453.7 857 480.3 878.5 493.7L900 507L900 601L878.5 601C857 601 814 601 771.2 601C728.3 601 685.7 601 642.8 601C600 601 557 601 514.2 601C471.3 601 428.7 601 385.8 601C343 601 300 601 257.2 601C214.3 601 171.7 601 128.8 601C86 601 43 601 21.5 601L0 601Z" fill="#FFFFFF" stroke-linecap="round" stroke-linejoin="miter"></path></svg>